<svg width="764" height="291" viewBox="0 0 764 291" fill="none" xmlns="http://www.w3.org/2000/svg">
<g opacity="0.04">
<path d="M0 240.51V2.71484H34.0464V240.51H0Z" fill="url(#paint0_linear_1_4332)"/>
<path fill-rule="evenodd" clip-rule="evenodd" d="M408.774 32.269V240.51H442.48V2.71484H354.98V32.269H408.774ZM408.774 16.3033V32.269H423.414L408.774 16.3033Z" fill="url(#paint1_linear_1_4332)"/>
<path d="M423.421 32.2724L408.781 16.3066V32.2724H423.421Z" fill="url(#paint2_linear_1_4332)"/>
<path fill-rule="evenodd" clip-rule="evenodd" d="M490.87 217.413V240.513H662.122V210.959H540.045L612.754 140.978C623.422 130.56 631.593 121.161 637.272 112.782C642.945 104.403 646.805 96.4762 648.845 89.0026C650.89 81.529 651.91 73.9422 651.91 66.2427C651.91 52.6542 648.503 40.878 641.694 30.9129C635.111 20.9483 625.694 13.3615 613.437 8.15295C601.181 2.71748 586.768 0 570.2 0C551.813 0 534.903 3.17039 519.469 9.51169C504.262 15.626 492.118 24.4589 483.039 36.0087L506.191 56.0511C513.681 47.2188 522.533 40.7642 532.747 36.688C542.964 32.3848 554.421 30.2335 567.135 30.2335C583.703 30.2335 596.301 33.7441 604.924 40.7643C613.553 47.7849 617.864 57.4104 617.864 69.6395C617.864 74.6221 617.071 79.8306 615.477 85.2661C614.116 90.4751 611.281 96.2497 606.97 102.591C602.884 108.706 596.527 115.84 587.904 123.993L490.87 217.413ZM518.107 210.959H540.045L526.28 224.207L518.107 210.959Z" fill="url(#paint3_linear_1_4332)"/>
<path d="M518.102 210.959L526.274 224.207L540.04 210.959H518.102Z" fill="url(#paint4_linear_1_4332)"/>
<path fill-rule="evenodd" clip-rule="evenodd" d="M730.295 32.269V240.51H763.999V2.71484H676.5V32.269H730.295ZM730.295 16.3033V32.269H744.934L730.295 16.3033Z" fill="url(#paint5_linear_1_4332)"/>
<path d="M744.929 32.2724L730.291 16.3066V32.2724H744.929Z" fill="url(#paint6_linear_1_4332)"/>
<path fill-rule="evenodd" clip-rule="evenodd" d="M204.561 243.007C207.337 243.153 210.144 243.231 212.981 243.231C224.493 243.231 235.411 242.047 245.737 239.678C248.738 242.793 251.664 245.559 254.517 247.985C260.873 253.422 267.115 257.273 273.243 259.537C279.372 262.026 285.386 263.273 291.288 263.273C308.311 263.273 322.837 256.48 334.867 242.892L350.869 262.251C335.435 280.821 315.461 290.109 290.947 290.109C283.003 290.109 275.399 289.091 268.136 287.051C260.873 285.241 253.61 282.183 246.346 277.878C239.083 273.803 231.593 268.366 223.876 261.572C217.765 256.375 211.227 250.176 204.262 242.991C204.361 242.997 204.461 243.002 204.561 243.007ZM204.262 242.991C202.432 241.097 200.571 239.141 198.682 237.116L235.111 227.604C238.516 231.794 241.835 235.587 245.07 238.984C245.293 239.219 245.515 239.448 245.737 239.678C251.699 238.311 257.463 236.553 263.029 234.398C278.464 228.282 291.855 219.787 303.204 208.919C314.78 197.82 323.632 184.911 329.76 170.191C336.116 155.472 339.293 139.279 339.293 121.614C339.293 103.95 336.116 87.7571 329.76 73.0364C323.632 58.3162 314.78 45.5204 303.204 34.6499C291.855 23.5525 278.464 15.0599 263.029 9.17201C247.822 3.05716 231.139 0 212.981 0C194.596 0 177.686 3.05716 162.252 9.17201C146.818 15.2863 133.426 23.8922 122.077 34.9896C110.728 45.86 101.877 58.6559 95.5211 73.3761C89.1657 88.0968 85.9883 104.176 85.9883 121.614C85.9883 139.053 89.1657 155.132 95.5211 169.852C101.877 184.572 110.728 197.481 122.077 208.579C133.426 219.448 146.818 227.943 162.252 234.058C175.378 239.182 189.382 242.162 204.262 242.991ZM249.411 206.2C238.289 210.729 226.145 212.994 212.981 212.994C199.59 212.994 187.22 210.729 175.871 206.2C164.749 201.671 154.989 195.216 146.591 186.836C138.192 178.457 131.61 168.72 126.844 157.624C122.304 146.526 120.034 134.523 120.034 121.614C120.034 108.479 122.304 96.363 126.844 85.2661C131.61 74.1692 138.192 64.5437 146.591 56.3908C154.989 48.0114 164.749 41.5574 175.871 37.0277C187.22 32.4986 199.59 30.2335 212.981 30.2335C226.145 30.2335 238.289 32.4986 249.411 37.0277C260.76 41.5574 270.519 48.0114 278.691 56.3908C287.089 64.5437 293.557 74.1692 298.097 85.2661C302.864 96.363 305.247 108.479 305.247 121.614C305.247 134.523 302.864 146.526 298.097 157.624C293.557 168.72 287.089 178.457 278.691 186.836C270.519 195.216 260.76 201.671 249.411 206.2Z" fill="url(#paint7_linear_1_4332)"/>
<path d="M235.117 227.605L198.688 237.118C200.577 239.142 202.438 241.099 204.268 242.993L204.567 243.009C207.343 243.155 210.15 243.233 212.987 243.233C224.499 243.233 235.417 242.049 245.743 239.68C245.521 239.45 245.299 239.221 245.076 238.986C241.841 235.589 238.522 231.795 235.117 227.605Z" fill="url(#paint8_linear_1_4332)"/>
</g>
<defs>
<linearGradient id="paint0_linear_1_4332" x1="152.221" y1="-250.989" x2="744.387" y2="255.714" gradientUnits="userSpaceOnUse">
<stop stop-color="#6F97FF"/>
<stop offset="1" stop-color="#09529A"/>
</linearGradient>
<linearGradient id="paint1_linear_1_4332" x1="152.217" y1="-250.989" x2="744.384" y2="255.714" gradientUnits="userSpaceOnUse">
<stop stop-color="#6F97FF"/>
<stop offset="1" stop-color="#09529A"/>
</linearGradient>
<linearGradient id="paint2_linear_1_4332" x1="152.225" y1="-250.986" x2="744.391" y2="255.716" gradientUnits="userSpaceOnUse">
<stop stop-color="#6F97FF"/>
<stop offset="1" stop-color="#09529A"/>
</linearGradient>
<linearGradient id="paint3_linear_1_4332" x1="152.222" y1="-250.986" x2="744.388" y2="255.716" gradientUnits="userSpaceOnUse">
<stop stop-color="#6F97FF"/>
<stop offset="1" stop-color="#09529A"/>
</linearGradient>
<linearGradient id="paint4_linear_1_4332" x1="152.216" y1="-250.984" x2="744.381" y2="255.718" gradientUnits="userSpaceOnUse">
<stop stop-color="#6F97FF"/>
<stop offset="1" stop-color="#09529A"/>
</linearGradient>
<linearGradient id="paint5_linear_1_4332" x1="152.225" y1="-250.989" x2="744.391" y2="255.714" gradientUnits="userSpaceOnUse">
<stop stop-color="#6F97FF"/>
<stop offset="1" stop-color="#09529A"/>
</linearGradient>
<linearGradient id="paint6_linear_1_4332" x1="152.221" y1="-250.986" x2="744.388" y2="255.716" gradientUnits="userSpaceOnUse">
<stop stop-color="#6F97FF"/>
<stop offset="1" stop-color="#09529A"/>
</linearGradient>
<linearGradient id="paint7_linear_1_4332" x1="152.218" y1="-250.986" x2="744.384" y2="255.716" gradientUnits="userSpaceOnUse">
<stop stop-color="#6F97FF"/>
<stop offset="1" stop-color="#09529A"/>
</linearGradient>
<linearGradient id="paint8_linear_1_4332" x1="152.224" y1="-250.986" x2="744.391" y2="255.717" gradientUnits="userSpaceOnUse">
<stop stop-color="#6F97FF"/>
<stop offset="1" stop-color="#09529A"/>
</linearGradient>
</defs>
</svg>
