<svg width="448" height="426" viewBox="0 0 448 426" fill="none" xmlns="http://www.w3.org/2000/svg">
<path fill-rule="evenodd" clip-rule="evenodd" d="M380.616 120.902C376.138 53.734 320.911 0 253.744 0C213.495 0 174.737 20.0995 150.105 52.1187C149.091 51.6018 148.062 51.1094 147.019 50.6433C138.759 46.5616 129.381 44.7784 119.409 44.7784C107.748 44.7784 96.8157 47.6933 87.295 52.8411C85.3911 53.8705 83.5431 54.989 81.7581 56.1916C79.0793 57.9958 76.5404 59.9881 74.1598 62.1501C72.5724 63.5914 71.055 65.1088 69.6137 66.6961C67.4509 69.0776 65.4586 71.6165 63.6552 74.2945C62.4527 76.0804 61.3341 77.9275 60.3047 79.8314C58.7602 82.6878 57.4169 85.671 56.293 88.7626C55.5435 90.824 54.892 92.9335 54.3427 95.0858C52.9705 100.466 52.242 106.115 52.242 111.945V114.93C21.6432 132.096 0 167.172 0 202.995C0 255.236 43.2854 298.522 95.5274 298.522H104.483V365.69C104.483 398.527 131.35 425.394 164.188 425.394H283.596C316.434 425.394 343.301 398.527 343.301 365.69V298.522H355.242C400.766 298.522 440.321 265.684 447.037 222.399C453.754 176.874 424.648 132.096 380.616 120.902ZM328.376 365.684C328.376 390.312 308.226 410.462 283.598 410.462H164.189C139.56 410.462 119.41 390.312 119.41 365.684V298.516V270.903C119.41 269.41 120.156 268.664 121.649 268.664H141.799H171.651H276.134H305.986H326.137C327.629 268.664 328.376 269.41 328.376 270.903V298.516V365.684H328.376ZM283.592 253.748H298.516V231.359C298.516 190.312 264.933 156.729 223.886 156.729C182.84 156.729 149.256 190.312 149.256 231.359V253.748H164.182V231.359C164.182 198.521 191.049 171.654 223.887 171.654C256.725 171.654 283.592 198.521 283.592 231.359V253.748ZM179.117 253.74V231.351C179.117 206.723 199.267 186.572 223.896 186.572C248.524 186.572 268.674 206.723 268.674 231.351V253.74H179.117ZM355.246 283.6C393.308 283.6 426.145 256.733 432.115 220.164C438.086 179.864 411.219 141.802 371.664 134.339L371.66 134.339C371.355 134.301 353.604 132.119 336.587 134.339H335.841C332.11 134.339 329.124 131.353 328.378 128.368C327.632 124.637 330.617 120.159 334.349 120.159C346.046 118.36 357.738 118.73 365.347 119.308C360.814 60.9106 312.463 14.9297 254.495 14.9297C219.486 14.9297 184.48 32.6661 163.028 60.7418C177.465 73.0261 186.579 91.3432 186.579 111.95C186.579 116.428 183.595 119.413 179.117 119.413C174.639 119.413 171.654 116.428 171.654 111.95C171.654 86.5234 153.997 65.6552 130.128 60.7855C130.038 60.7672 129.947 60.7497 129.857 60.7322C129.135 60.5887 128.407 60.4619 127.675 60.3482C127.616 60.3393 127.557 60.3295 127.498 60.3197C127.441 60.3102 127.385 60.3008 127.329 60.2923C126.545 60.1759 125.754 60.078 124.958 59.9958C124.85 59.9845 124.742 59.9753 124.633 59.9661C124.557 59.9596 124.48 59.9532 124.403 59.9459C123.778 59.8882 123.149 59.841 122.518 59.8051L122.505 59.8044C122.281 59.7915 122.058 59.7787 121.834 59.7684C121.031 59.7325 120.224 59.708 119.412 59.708C90.306 59.708 67.1708 82.8432 67.1708 111.949V114.188V115.681V116.427V120.159V124.637L62.693 126.876C35.0799 139.563 14.9297 171.654 14.9297 202.999C14.9297 247.031 51.4984 283.6 95.5307 283.6H104.486V270.912C104.486 261.21 111.95 253.747 121.652 253.747H134.339V231.358C134.339 182.102 174.64 141.801 223.896 141.801C273.152 141.801 313.453 182.102 313.453 231.358V253.747H326.14C335.843 253.747 343.305 261.211 343.305 270.912V283.6H355.246Z" fill="#F6F9FC"/>
</svg>
