<svg width="65" height="64" viewBox="0 0 65 64" fill="none" xmlns="http://www.w3.org/2000/svg">
    <rect x="0.435547" width="64" height="64" rx="32" fill="url(#paint0_linear_1_4330)"/>
    <path d="M20.2022 31.5898C23.2785 31.5898 26.1221 32.8187 27.9977 34.9662L33.2741 41H35.843L29.4807 33.7254C27.2378 31.1602 23.8549 29.6811 20.2022 29.6811C13.7181 29.6811 8.43555 34.3933 8.43555 40.1796C8.43555 40.4551 8.44752 40.7282 8.47104 40.9985H10.4407C10.4115 40.7289 10.3965 40.4558 10.3965 40.1796C10.3965 35.4433 14.7968 31.5898 20.2022 31.5898Z" fill="url(#paint1_linear_1_4330)"/>
    <path d="M42.7548 34.4531H45.2063C49.3995 34.4531 52.8786 37.3026 53.4568 41H55.4355C54.8506 36.2492 50.4845 32.5443 45.2063 32.5443H44.7162C44.7162 27.283 39.8746 23 33.9298 23C30.7185 23 27.8996 24.2408 25.767 26.6029L27.2378 27.8674C28.9906 25.9349 31.307 24.9087 33.9298 24.9087C38.7958 24.9087 42.7548 28.333 42.7548 32.5443V34.4531Z" fill="url(#paint2_linear_1_4330)"/>
    <defs>
    <linearGradient id="paint0_linear_1_4330" x1="2.93834" y1="5.55555" x2="71.018" y2="15.8195" gradientUnits="userSpaceOnUse">
    <stop stop-color="#4A7DFF"/>
    <stop offset="1" stop-color="#7EA0F7"/>
    </linearGradient>
    <linearGradient id="paint1_linear_1_4330" x1="30.6987" y1="29.1875" x2="31.7236" y2="41.0184" gradientUnits="userSpaceOnUse">
    <stop stop-color="white"/>
    <stop offset="1" stop-color="white" stop-opacity="0"/>
    </linearGradient>
    <linearGradient id="paint2_linear_1_4330" x1="30.6987" y1="29.1875" x2="31.7236" y2="41.0184" gradientUnits="userSpaceOnUse">
    <stop stop-color="white"/>
    <stop offset="1" stop-color="white" stop-opacity="0"/>
    </linearGradient>
    </defs>
</svg>