<svg width="76" height="64" viewBox="0 0 76 64" fill="none" xmlns="http://www.w3.org/2000/svg">
<g clip-path="url(#clip0_1_4347)">
<path d="M19.0407 14.8156C23.9595 14.8156 28.5063 16.9353 31.5052 20.6392L39.9418 31.0464H44.0494L33.8765 18.4991C30.2902 14.0747 24.8811 11.5234 19.0407 11.5234C8.67305 11.5234 0.226562 19.6511 0.226562 29.6315C0.226562 30.1066 0.245712 30.5776 0.283307 31.0438H3.43273C3.38598 30.5789 3.36206 30.1077 3.36206 29.6315C3.36206 21.4621 10.3979 14.8156 19.0407 14.8156Z" fill="url(#paint0_linear_1_4347)"/>
<path d="M55.102 19.7544H59.0216C65.726 19.7544 71.2893 24.6693 72.2139 31.0466H75.3775C74.4425 22.8525 67.461 16.4622 59.0216 16.4622H58.2379C58.2379 7.38739 50.4965 0 40.9913 0C35.8566 0 31.3494 2.14014 27.9395 6.21427L30.2912 8.39539C33.0937 5.06219 36.7976 3.2922 40.9913 3.2922C48.7717 3.2922 55.102 9.19839 55.102 16.4622V19.7544Z" fill="url(#paint1_linear_1_4347)"/>
<path d="M0 59.0784V35.4807H3.37861V59.0784H0Z" fill="url(#paint2_linear_1_4347)"/>
<path fill-rule="evenodd" clip-rule="evenodd" d="M40.5648 38.4133V59.0782H43.9096V35.4805H35.2266V38.4133H40.5648ZM40.5648 36.8289V38.4133H42.0176L40.5648 36.8289Z" fill="url(#paint3_linear_1_4347)"/>
<path d="M42.0173 38.4125L40.5645 36.8281V38.4125H42.0173Z" fill="url(#paint4_linear_1_4347)"/>
<path fill-rule="evenodd" clip-rule="evenodd" d="M48.7107 56.786V59.0783H65.7049V56.1455H53.5906L60.8059 49.2009C61.8646 48.1671 62.6754 47.2344 63.239 46.4029C63.802 45.5714 64.185 44.7848 64.3874 44.0431C64.5904 43.3015 64.6916 42.5486 64.6916 41.7846C64.6916 40.4361 64.3535 39.2675 63.6778 38.2786C63.0245 37.2897 62.09 36.5369 60.8737 36.02C59.6574 35.4806 58.2272 35.2109 56.5831 35.2109C54.7584 35.2109 53.0803 35.5256 51.5487 36.1548C50.0396 36.7616 48.8346 37.6381 47.9336 38.7843L50.2311 40.7732C50.9743 39.8967 51.8528 39.2562 52.8664 38.8517C53.8802 38.4247 55.0172 38.2112 56.2789 38.2112C57.923 38.2112 59.1732 38.5595 60.0289 39.2562C60.8852 39.9529 61.313 40.9081 61.313 42.1216C61.313 42.6161 61.2343 43.133 61.0762 43.6723C60.941 44.1893 60.6598 44.7623 60.2319 45.3916C59.8265 45.9984 59.1956 46.7063 58.3399 47.5154L48.7107 56.786ZM51.4136 56.1455H53.5906L52.2246 57.4602L51.4136 56.1455Z" fill="url(#paint5_linear_1_4347)"/>
<path d="M51.4141 56.1445L52.2251 57.4592L53.5911 56.1445H51.4141Z" fill="url(#paint6_linear_1_4347)"/>
<path fill-rule="evenodd" clip-rule="evenodd" d="M72.4712 38.4133V59.0782H75.8158V35.4805H67.1328V38.4133H72.4712ZM72.4712 36.8289V38.4133H73.9238L72.4712 36.8289Z" fill="url(#paint7_linear_1_4347)"/>
<path d="M73.9234 38.4125L72.4707 36.8281V38.4125H73.9234Z" fill="url(#paint8_linear_1_4347)"/>
<path fill-rule="evenodd" clip-rule="evenodd" d="M20.2998 59.3258C20.5753 59.3403 20.8539 59.3481 21.1354 59.3481C22.2778 59.3481 23.3612 59.2306 24.3859 58.9955C24.6837 59.3046 24.9741 59.579 25.2573 59.8198C25.8879 60.3594 26.5073 60.7415 27.1155 60.9662C27.7237 61.2132 28.3206 61.337 28.9062 61.337C30.5955 61.337 32.037 60.6628 33.2308 59.3144L34.8188 61.2355C33.2871 63.0783 31.305 64 28.8724 64C28.084 64 27.3295 63.899 26.6087 63.6966C25.8879 63.5169 25.1672 63.2135 24.4464 62.7863C23.7257 62.3819 22.9824 61.8423 22.2165 61.1682C21.6101 60.6524 20.9613 60.0373 20.2701 59.3243C20.28 59.3248 20.2899 59.3253 20.2998 59.3258ZM20.2701 59.3243C20.0885 59.1363 19.9039 58.9421 19.7164 58.7412L23.3314 57.7973C23.6694 58.2131 23.9988 58.5895 24.3197 58.9266C24.3418 58.9499 24.3639 58.9727 24.3859 58.9955C24.9775 58.8598 25.5496 58.6853 26.1019 58.4715C27.6336 57.8646 28.9625 57.0216 30.0887 55.9431C31.2374 54.8417 32.1159 53.5607 32.724 52.0999C33.3547 50.6393 33.67 49.0324 33.67 47.2794C33.67 45.5264 33.3547 43.9195 32.724 42.4587C32.1159 40.998 31.2374 39.7282 30.0887 38.6494C28.9625 37.5482 27.6336 36.7054 26.1019 36.1211C24.5928 35.5143 22.9373 35.2109 21.1354 35.2109C19.3109 35.2109 17.6329 35.5143 16.1013 36.1211C14.5696 36.7279 13.2407 37.5819 12.1145 38.6831C10.9883 39.7619 10.1099 41.0317 9.4792 42.4924C8.84852 43.9533 8.5332 45.5489 8.5332 47.2794C8.5332 49.0099 8.84852 50.6055 9.4792 52.0663C10.1099 53.527 10.9883 54.808 12.1145 55.9094C13.2407 56.988 14.5696 57.8309 16.1013 58.4378C17.4039 58.9463 18.7935 59.242 20.2701 59.3243ZM24.7505 55.6733C23.6468 56.1227 22.4418 56.3475 21.1354 56.3475C19.8065 56.3475 18.5789 56.1227 17.4527 55.6733C16.349 55.2238 15.3805 54.5833 14.5471 53.7517C13.7137 52.9201 13.0605 51.9539 12.5875 50.8528C12.137 49.7515 11.9118 48.5604 11.9118 47.2794C11.9118 45.9759 12.137 44.7736 12.5875 43.6723C13.0605 42.5711 13.7137 41.616 14.5471 40.8069C15.3805 39.9754 16.349 39.3349 17.4527 38.8854C18.5789 38.4359 19.8065 38.2112 21.1354 38.2112C22.4418 38.2112 23.6468 38.4359 24.7505 38.8854C25.8767 39.3349 26.8452 39.9754 27.6561 40.8069C28.4895 41.616 29.1314 42.5711 29.5819 43.6723C30.0549 44.7736 30.2914 45.9759 30.2914 47.2794C30.2914 48.5604 30.0549 49.7515 29.5819 50.8528C29.1314 51.9539 28.4895 52.9201 27.6561 53.7517C26.8452 54.5833 25.8767 55.2238 24.7505 55.6733Z" fill="url(#paint9_linear_1_4347)"/>
<path d="M23.3319 57.7969L19.7168 58.7408C19.9043 58.9417 20.0889 59.1359 20.2706 59.3239L20.3003 59.3254C20.5758 59.3399 20.8543 59.3477 21.1358 59.3477C22.2782 59.3477 23.3617 59.2301 24.3864 58.9951C24.3643 58.9723 24.3423 58.9495 24.3201 58.9262C23.9992 58.5891 23.6698 58.2127 23.3319 57.7969Z" fill="url(#paint10_linear_1_4347)"/>
</g>
<defs>
<linearGradient id="paint0_linear_1_4347" x1="15.1051" y1="10.304" x2="73.869" y2="60.5869" gradientUnits="userSpaceOnUse">
<stop stop-color="#6F97FF"/>
<stop offset="1" stop-color="#09529A"/>
</linearGradient>
<linearGradient id="paint1_linear_1_4347" x1="15.1061" y1="10.3042" x2="73.87" y2="60.587" gradientUnits="userSpaceOnUse">
<stop stop-color="#6F97FF"/>
<stop offset="1" stop-color="#09529A"/>
</linearGradient>
<linearGradient id="paint2_linear_1_4347" x1="15.1057" y1="10.3043" x2="73.8695" y2="60.5872" gradientUnits="userSpaceOnUse">
<stop stop-color="#6F97FF"/>
<stop offset="1" stop-color="#09529A"/>
</linearGradient>
<linearGradient id="paint3_linear_1_4347" x1="15.1053" y1="10.3041" x2="73.8691" y2="60.5869" gradientUnits="userSpaceOnUse">
<stop stop-color="#6F97FF"/>
<stop offset="1" stop-color="#09529A"/>
</linearGradient>
<linearGradient id="paint4_linear_1_4347" x1="15.105" y1="10.3033" x2="73.8689" y2="60.586" gradientUnits="userSpaceOnUse">
<stop stop-color="#6F97FF"/>
<stop offset="1" stop-color="#09529A"/>
</linearGradient>
<linearGradient id="paint5_linear_1_4347" x1="15.1048" y1="10.3042" x2="73.8687" y2="60.5871" gradientUnits="userSpaceOnUse">
<stop stop-color="#6F97FF"/>
<stop offset="1" stop-color="#09529A"/>
</linearGradient>
<linearGradient id="paint6_linear_1_4347" x1="15.1053" y1="10.3034" x2="73.869" y2="60.5863" gradientUnits="userSpaceOnUse">
<stop stop-color="#6F97FF"/>
<stop offset="1" stop-color="#09529A"/>
</linearGradient>
<linearGradient id="paint7_linear_1_4347" x1="15.1061" y1="10.3041" x2="73.87" y2="60.5869" gradientUnits="userSpaceOnUse">
<stop stop-color="#6F97FF"/>
<stop offset="1" stop-color="#09529A"/>
</linearGradient>
<linearGradient id="paint8_linear_1_4347" x1="15.1057" y1="10.3033" x2="73.8696" y2="60.586" gradientUnits="userSpaceOnUse">
<stop stop-color="#6F97FF"/>
<stop offset="1" stop-color="#09529A"/>
</linearGradient>
<linearGradient id="paint9_linear_1_4347" x1="15.1055" y1="10.3042" x2="73.8694" y2="60.5871" gradientUnits="userSpaceOnUse">
<stop stop-color="#6F97FF"/>
<stop offset="1" stop-color="#09529A"/>
</linearGradient>
<linearGradient id="paint10_linear_1_4347" x1="15.1059" y1="10.3037" x2="73.8699" y2="60.5865" gradientUnits="userSpaceOnUse">
<stop stop-color="#6F97FF"/>
<stop offset="1" stop-color="#09529A"/>
</linearGradient>
<clipPath id="clip0_1_4347">
<rect width="75.8154" height="64" fill="white"/>
</clipPath>
</defs>
</svg>
